<?xml version="1.0" ?><svg id="object" viewBox="0 0 32 32" xmlns="http://www.w3.org/2000/svg"><defs><style>.cls-1{fill:#ffc661;}.cls-2{fill:#6d6daa;}</style></defs><title/><path class="cls-1" d="M16,2A14,14,0,0,0,6.22,26L2,30H16A14,14,0,0,0,16,2Z"/><path class="cls-2" d="M16,31H2a1,1,0,0,1-.93-.63,1,1,0,0,1,.24-1.1L4.8,26A15,15,0,1,1,16,31ZM4.52,29H16a13,13,0,1,0-9.08-3.7,1,1,0,0,1,.3.72,1,1,0,0,1-.31.72Z"/><path class="cls-2" d="M23,12H9a1,1,0,0,1,0-2H23a1,1,0,0,1,0,2Z"/><path class="cls-2" d="M23,17H9a1,1,0,0,1,0-2H23a1,1,0,0,1,0,2Z"/><path class="cls-2" d="M23,22H9a1,1,0,0,1,0-2H23a1,1,0,0,1,0,2Z"/></svg>